<?xml version="1.0" encoding="UTF-8" standalone="no"?>
<svg
   xmlns:dc="http://purl.org/dc/elements/1.1/"
   xmlns:cc="http://creativecommons.org/ns#"
   xmlns:rdf="http://www.w3.org/1999/02/22-rdf-syntax-ns#"
   xmlns:svg="http://www.w3.org/2000/svg"
   xmlns="http://www.w3.org/2000/svg"
   xmlns:sodipodi="http://sodipodi.sourceforge.net/DTD/sodipodi-0.dtd"
   xmlns:inkscape="http://www.inkscape.org/namespaces/inkscape"
   viewBox="0 0 512 512"
   version="1.1"
   id="svg11"
   sodipodi:docname="iconfinder_document_file_paper_page-02_2850904.svg"
   inkscape:version="0.92.2 5c3e80d, 2017-08-06">
  <metadata
     id="metadata17">
    <rdf:RDF>
      <cc:Work
         rdf:about="">
        <dc:format>image/svg+xml</dc:format>
        <dc:type
           rdf:resource="http://purl.org/dc/dcmitype/StillImage" />
      </cc:Work>
    </rdf:RDF>
  </metadata>
  <defs
     id="defs15" />
  <sodipodi:namedview
     pagecolor="#ffffff"
     bordercolor="#666666"
     borderopacity="1"
     objecttolerance="10"
     gridtolerance="10"
     guidetolerance="10"
     inkscape:pageopacity="0"
     inkscape:pageshadow="2"
     inkscape:window-width="1396"
     inkscape:window-height="855"
     id="namedview13"
     showgrid="false"
     inkscape:zoom="0.4609375"
     inkscape:cx="256"
     inkscape:cy="256"
     inkscape:window-x="44"
     inkscape:window-y="1"
     inkscape:window-maximized="1"
     inkscape:current-layer="svg11" />
  <title
     id="title2" />
  <g
     data-name="1"
     id="_1"
     style="fill:#ffffff">
    <path
       d="M285.74,450H98.65A43.75,43.75,0,0,1,55,406.3V159.62a43.75,43.75,0,0,1,43.7-43.7h122.7A15,15,0,0,1,232,120.31L325,213.4a15,15,0,0,1,4.4,10.61V406.3A43.75,43.75,0,0,1,285.74,450ZM98.65,145.92A13.71,13.71,0,0,0,85,159.62V406.3A13.72,13.72,0,0,0,98.65,420H285.74a13.72,13.72,0,0,0,13.7-13.7V230.22l-84.3-84.3Z"
       id="path4"
       style="fill:#ffffff" />
    <path
       d="M352.74,383h-38.3a15,15,0,0,1,0-30h38.3a13.72,13.72,0,0,0,13.7-13.7V92.62a13.72,13.72,0,0,0-13.7-13.7H165.65A13.72,13.72,0,0,0,152,92.62v38.3a15,15,0,0,1-30,0V92.62a43.74,43.74,0,0,1,43.7-43.7H352.74a43.74,43.74,0,0,1,43.7,43.7V339.3A43.74,43.74,0,0,1,352.74,383Z"
       id="path6"
       style="fill:#ffffff" />
    <path
       d="M314.44,239H250.05a43.75,43.75,0,0,1-43.7-43.7V130.92a15,15,0,0,1,30,0v64.39a13.71,13.71,0,0,0,13.7,13.7h64.39a15,15,0,1,1,0,30Z"
       id="path8"
       style="fill:#ffffff" />
  </g>
</svg>
